<svg width="246" height="29" viewBox="0 0 246 29" fill="none" xmlns="http://www.w3.org/2000/svg">
<path d="M21.5805 2.79297L13.3012 28H8.25632L0.0121841 2.79297H5.74265L10.77 19.6152L15.8149 2.79297H21.5805ZM30.2367 4.05859C30.2367 4.50391 30.1488 4.91992 29.973 5.30664C29.809 5.69336 29.5805 6.0332 29.2875 6.32617C28.9945 6.60742 28.6488 6.83594 28.2504 7.01172C27.8637 7.17578 27.4477 7.25781 27.0023 7.25781C26.557 7.25781 26.1352 7.17578 25.7367 7.01172C25.35 6.83594 25.0102 6.60742 24.7172 6.32617C24.4359 6.0332 24.2074 5.69336 24.0316 5.30664C23.8676 4.91992 23.7855 4.50391 23.7855 4.05859C23.7855 3.625 23.8676 3.21484 24.0316 2.82812C24.2074 2.42969 24.4359 2.08984 24.7172 1.80859C25.0102 1.51562 25.35 1.28711 25.7367 1.12305C26.1352 0.947266 26.557 0.859375 27.0023 0.859375C27.4477 0.859375 27.8637 0.947266 28.2504 1.12305C28.6488 1.28711 28.9945 1.51562 29.2875 1.80859C29.5805 2.08984 29.809 2.42969 29.973 2.82812C30.1488 3.21484 30.2367 3.625 30.2367 4.05859ZM29.4105 28H24.5766V9.17383H29.4105V28ZM53.0081 18.4199C53.0081 19.8965 52.7562 21.2441 52.2523 22.4629C51.7484 23.6816 51.0628 24.7305 50.1956 25.6094C49.3284 26.4766 48.3089 27.1504 47.137 27.6309C45.9769 28.1113 44.7288 28.3516 43.3929 28.3516C42.0687 28.3516 40.8206 28.1055 39.6487 27.6133C38.4886 27.1211 37.4691 26.4355 36.5902 25.5566C35.723 24.6777 35.0374 23.6348 34.5335 22.4277C34.0296 21.209 33.7777 19.873 33.7777 18.4199V1.68555H38.5941V10.4746C38.8519 10.1465 39.1624 9.85352 39.5257 9.5957C39.9007 9.33789 40.2991 9.12695 40.721 8.96289C41.1546 8.79883 41.5999 8.67578 42.0569 8.59375C42.514 8.5 42.9593 8.45312 43.3929 8.45312C44.7288 8.45312 45.9769 8.70508 47.137 9.20898C48.3089 9.70117 49.3284 10.3926 50.1956 11.2832C51.0628 12.1738 51.7484 13.2285 52.2523 14.4473C52.7562 15.6543 53.0081 16.9785 53.0081 18.4199ZM48.1741 18.4199C48.1741 17.6934 48.0452 17.0195 47.7874 16.3984C47.5413 15.7656 47.2015 15.2207 46.7679 14.7637C46.3343 14.3066 45.8245 13.9492 45.2386 13.6914C44.6644 13.4336 44.0491 13.3047 43.3929 13.3047C42.7366 13.3047 42.1155 13.4512 41.5296 13.7441C40.9554 14.0254 40.4515 14.4062 40.0179 14.8867C39.5843 15.3555 39.2444 15.9004 38.9984 16.5215C38.7523 17.1309 38.6292 17.7637 38.6292 18.4199C38.6292 19.1465 38.7523 19.8203 38.9984 20.4414C39.2444 21.0625 39.5843 21.6016 40.0179 22.0586C40.4515 22.5156 40.9554 22.8789 41.5296 23.1484C42.1155 23.4062 42.7366 23.5352 43.3929 23.5352C44.0491 23.5352 44.6644 23.4062 45.2386 23.1484C45.8245 22.8789 46.3343 22.5156 46.7679 22.0586C47.2015 21.6016 47.5413 21.0625 47.7874 20.4414C48.0452 19.8203 48.1741 19.1465 48.1741 18.4199ZM61.5588 28H56.76V9.17383H57.9202L59.5022 11.4062C60.2756 10.7031 61.1545 10.1641 62.1389 9.78906C63.1233 9.40234 64.1428 9.20898 65.1975 9.20898H69.4338V13.9902H65.1975C64.6936 13.9902 64.219 14.084 63.7737 14.2715C63.3284 14.459 62.9416 14.7168 62.6135 15.0449C62.2854 15.373 62.0276 15.7598 61.8401 16.2051C61.6526 16.6504 61.5588 17.125 61.5588 17.6289V28ZM90.6232 28H89.463L87.5998 25.416C87.1427 25.8262 86.6564 26.2129 86.1408 26.5762C85.6369 26.9277 85.1037 27.2383 84.5412 27.5078C83.9787 27.7656 83.3986 27.9707 82.8009 28.123C82.215 28.2754 81.6173 28.3516 81.008 28.3516C79.6837 28.3516 78.4357 28.1289 77.2638 27.6836C76.1037 27.2383 75.0841 26.5938 74.2052 25.75C73.338 24.8945 72.6525 23.8516 72.1486 22.6211C71.6447 21.3906 71.3927 19.9902 71.3927 18.4199C71.3927 16.9551 71.6447 15.6133 72.1486 14.3945C72.6525 13.1641 73.338 12.1094 74.2052 11.2305C75.0841 10.3516 76.1037 9.67188 77.2638 9.19141C78.4357 8.69922 79.6837 8.45312 81.008 8.45312C81.6173 8.45312 82.2209 8.5293 82.8185 8.68164C83.4162 8.83398 83.9962 9.04492 84.5587 9.31445C85.1212 9.58398 85.6544 9.90039 86.1584 10.2637C86.674 10.627 87.1544 11.0195 87.5998 11.4414L89.463 9.20898H90.6232V28ZM85.7892 18.4199C85.7892 17.7637 85.6603 17.1309 85.4025 16.5215C85.1564 15.9004 84.8166 15.3555 84.383 14.8867C83.9494 14.4062 83.4396 14.0254 82.8537 13.7441C82.2794 13.4512 81.6642 13.3047 81.008 13.3047C80.3517 13.3047 79.7306 13.416 79.1447 13.6387C78.5705 13.8613 78.0666 14.1895 77.633 14.623C77.2111 15.0566 76.8771 15.5957 76.631 16.2402C76.3849 16.873 76.2619 17.5996 76.2619 18.4199C76.2619 19.2402 76.3849 19.9727 76.631 20.6172C76.8771 21.25 77.2111 21.7832 77.633 22.2168C78.0666 22.6504 78.5705 22.9785 79.1447 23.2012C79.7306 23.4238 80.3517 23.5352 81.008 23.5352C81.6642 23.5352 82.2794 23.3945 82.8537 23.1133C83.4396 22.8203 83.9494 22.4395 84.383 21.9707C84.8166 21.4902 85.1564 20.9453 85.4025 20.3359C85.6603 19.7148 85.7892 19.0762 85.7892 18.4199ZM100.176 28H95.377V9.17383H96.5372L98.1192 11.002C98.8927 10.2988 99.7657 9.75977 100.738 9.38477C101.723 8.99805 102.748 8.80469 103.815 8.80469C104.963 8.80469 106.047 9.02734 107.066 9.47266C108.086 9.90625 108.977 10.5098 109.738 11.2832C110.5 12.0449 111.098 12.9414 111.531 13.9727C111.977 14.9922 112.199 16.082 112.199 17.2422V28H107.4V17.2422C107.4 16.75 107.307 16.2871 107.119 15.8535C106.932 15.4082 106.674 15.0215 106.346 14.6934C106.018 14.3652 105.637 14.1074 105.203 13.9199C104.77 13.7324 104.307 13.6387 103.815 13.6387C103.311 13.6387 102.836 13.7324 102.391 13.9199C101.945 14.1074 101.559 14.3652 101.231 14.6934C100.902 15.0215 100.645 15.4082 100.457 15.8535C100.27 16.2871 100.176 16.75 100.176 17.2422V28ZM125.9 28C124.74 28 123.65 27.7832 122.631 27.3496C121.611 26.9043 120.715 26.3008 119.941 25.5391C119.18 24.7656 118.576 23.8691 118.131 22.8496C117.697 21.8301 117.48 20.7402 117.48 19.5801V13.9902H115.143V9.20898H117.48V1.68555H122.262V9.20898H129.539V13.9902H122.262V19.5801C122.262 20.084 122.355 20.5586 122.543 21.0039C122.73 21.4375 122.988 21.8184 123.316 22.1465C123.645 22.4746 124.031 22.7383 124.477 22.9375C124.922 23.125 125.396 23.2188 125.9 23.2188H129.539V28H125.9ZM170.019 28H164.992V10C164.992 9.64844 164.922 9.32031 164.781 9.01562C164.652 8.71094 164.471 8.44727 164.236 8.22461C164.014 7.99023 163.75 7.80859 163.445 7.67969C163.14 7.55078 162.812 7.48633 162.461 7.48633C162.109 7.48633 161.781 7.55078 161.476 7.67969C161.172 7.80859 160.902 7.99023 160.668 8.22461C160.445 8.44727 160.269 8.71094 160.14 9.01562C160.012 9.32031 159.947 9.64844 159.947 10V28H154.902V10C154.902 9.64844 154.838 9.32031 154.709 9.01562C154.58 8.71094 154.398 8.44727 154.164 8.22461C153.941 7.99023 153.678 7.80859 153.373 7.67969C153.068 7.55078 152.74 7.48633 152.389 7.48633C152.037 7.48633 151.709 7.55078 151.404 7.67969C151.099 7.80859 150.83 7.99023 150.596 8.22461C150.373 8.44727 150.197 8.71094 150.068 9.01562C149.939 9.32031 149.875 9.64844 149.875 10V28H144.83V10C144.83 8.95703 145.023 7.97852 145.41 7.06445C145.808 6.13867 146.348 5.33594 147.027 4.65625C147.719 3.96484 148.521 3.42578 149.435 3.03906C150.361 2.64062 151.346 2.44141 152.389 2.44141C153.326 2.44141 154.228 2.61133 155.096 2.95117C155.963 3.2793 156.742 3.75977 157.433 4.39258C158.125 3.75977 158.898 3.2793 159.754 2.95117C160.621 2.61133 161.523 2.44141 162.461 2.44141C163.504 2.44141 164.482 2.64062 165.396 3.03906C166.322 3.42578 167.125 3.96484 167.805 4.65625C168.496 5.33594 169.035 6.13867 169.422 7.06445C169.82 7.97852 170.019 8.95703 170.019 10V28ZM180.767 4.05859C180.767 4.50391 180.679 4.91992 180.504 5.30664C180.34 5.69336 180.111 6.0332 179.818 6.32617C179.525 6.60742 179.179 6.83594 178.781 7.01172C178.394 7.17578 177.978 7.25781 177.533 7.25781C177.088 7.25781 176.666 7.17578 176.267 7.01172C175.881 6.83594 175.541 6.60742 175.248 6.32617C174.967 6.0332 174.738 5.69336 174.562 5.30664C174.398 4.91992 174.316 4.50391 174.316 4.05859C174.316 3.625 174.398 3.21484 174.562 2.82812C174.738 2.42969 174.967 2.08984 175.248 1.80859C175.541 1.51562 175.881 1.28711 176.267 1.12305C176.666 0.947266 177.088 0.859375 177.533 0.859375C177.978 0.859375 178.394 0.947266 178.781 1.12305C179.179 1.28711 179.525 1.51562 179.818 1.80859C180.111 2.08984 180.34 2.42969 180.504 2.82812C180.679 3.21484 180.767 3.625 180.767 4.05859ZM179.941 28H175.107V9.17383H179.941V28ZM189.494 28H184.695V9.17383H185.855L187.437 11.002C188.211 10.2988 189.084 9.75977 190.056 9.38477C191.041 8.99805 192.066 8.80469 193.133 8.80469C194.281 8.80469 195.365 9.02734 196.384 9.47266C197.404 9.90625 198.295 10.5098 199.056 11.2832C199.818 12.0449 200.416 12.9414 200.849 13.9727C201.295 14.9922 201.517 16.082 201.517 17.2422V28H196.718V17.2422C196.718 16.75 196.625 16.2871 196.437 15.8535C196.25 15.4082 195.992 15.0215 195.664 14.6934C195.336 14.3652 194.955 14.1074 194.521 13.9199C194.088 13.7324 193.625 13.6387 193.133 13.6387C192.629 13.6387 192.154 13.7324 191.709 13.9199C191.263 14.1074 190.877 14.3652 190.549 14.6934C190.22 15.0215 189.963 15.4082 189.775 15.8535C189.588 16.2871 189.494 16.75 189.494 17.2422V28ZM224.218 28H223.058L221.195 25.416C220.738 25.8262 220.252 26.2129 219.736 26.5762C219.232 26.9277 218.699 27.2383 218.136 27.5078C217.574 27.7656 216.994 27.9707 216.396 28.123C215.81 28.2754 215.212 28.3516 214.603 28.3516C213.279 28.3516 212.031 28.1055 210.859 27.6133C209.699 27.1094 208.679 26.418 207.8 25.5391C206.933 24.6484 206.248 23.5996 205.744 22.3926C205.24 21.1738 204.988 19.8496 204.988 18.4199C204.988 17.002 205.24 15.6836 205.744 14.4648C206.248 13.2461 206.933 12.1914 207.8 11.3008C208.679 10.4102 209.699 9.71289 210.859 9.20898C212.031 8.70508 213.279 8.45312 214.603 8.45312C215.025 8.45312 215.459 8.48828 215.904 8.55859C216.361 8.62891 216.8 8.74609 217.222 8.91016C217.656 9.0625 218.06 9.26758 218.435 9.52539C218.81 9.7832 219.127 10.0996 219.384 10.4746V1.68555H224.218V28ZM219.384 18.4199C219.384 17.7637 219.255 17.1309 218.998 16.5215C218.752 15.9004 218.412 15.3555 217.978 14.8867C217.545 14.4062 217.035 14.0254 216.449 13.7441C215.875 13.4512 215.259 13.3047 214.603 13.3047C213.947 13.3047 213.326 13.4219 212.74 13.6562C212.166 13.8906 211.662 14.2305 211.228 14.6758C210.806 15.1094 210.472 15.6426 210.226 16.2754C209.98 16.9082 209.857 17.623 209.857 18.4199C209.857 19.1113 209.98 19.7676 210.226 20.3887C210.472 21.0098 210.806 21.5547 211.228 22.0234C211.662 22.4922 212.166 22.8613 212.74 23.1309C213.326 23.4004 213.947 23.5352 214.603 23.5352C215.259 23.5352 215.875 23.3945 216.449 23.1133C217.035 22.8203 217.545 22.4395 217.978 21.9707C218.412 21.4902 218.752 20.9453 218.998 20.3359C219.255 19.7148 219.384 19.0762 219.384 18.4199ZM239.308 28H228.339V23.2188H239.308C239.636 23.2188 239.918 23.1016 240.152 22.8672C240.386 22.6328 240.503 22.3516 240.503 22.0234C240.503 21.6836 240.386 21.4609 240.152 21.3555C239.918 21.25 239.636 21.1973 239.308 21.1973H234.316C233.484 21.1973 232.705 21.0391 231.978 20.7227C231.251 20.4062 230.619 19.9785 230.08 19.4395C229.541 18.8887 229.113 18.25 228.796 17.5234C228.492 16.7969 228.339 16.0176 228.339 15.1855C228.339 14.3535 228.492 13.5742 228.796 12.8477C229.113 12.1211 229.541 11.4883 230.08 10.9492C230.619 10.4102 231.251 9.98828 231.978 9.68359C232.705 9.36719 233.484 9.20898 234.316 9.20898H244.037V13.9902H234.316C233.988 13.9902 233.707 14.1074 233.472 14.3418C233.238 14.5762 233.121 14.8574 233.121 15.1855C233.121 15.5254 233.238 15.8184 233.472 16.0645C233.707 16.2988 233.988 16.416 234.316 16.416H239.308C240.128 16.416 240.902 16.5566 241.628 16.8379C242.355 17.1074 242.988 17.4883 243.527 17.9805C244.066 18.4727 244.494 19.0645 244.81 19.7559C245.126 20.4473 245.285 21.2031 245.285 22.0234C245.285 22.8555 245.126 23.6348 244.81 24.3613C244.494 25.0762 244.066 25.709 243.527 26.2598C242.988 26.7988 242.355 27.2266 241.628 27.543C240.902 27.8477 240.128 28 239.308 28Z" fill="#FFD600"/>
</svg>
