<svg width="24" height="24" viewBox="0 0 24 24" fill="none" xmlns="http://www.w3.org/2000/svg">
<g clip-path="url(#clip0_154_513)">
<path fill-rule="evenodd" clip-rule="evenodd" d="M2.8275 0.766476C3.08996 0.504409 3.40512 0.301114 3.75209 0.170061C4.09907 0.0390087 4.46993 -0.0168078 4.84011 0.00631052C5.21028 0.0294288 5.57132 0.130954 5.89929 0.304158C6.22726 0.477362 6.51468 0.71829 6.7425 1.01098L9.435 4.46998C9.9285 5.10448 10.1025 5.93098 9.9075 6.71098L9.087 9.99598C9.04458 10.1661 9.04687 10.3443 9.09365 10.5133C9.14043 10.6823 9.23012 10.8364 9.354 10.9605L13.0395 14.646C13.1638 14.7701 13.318 14.8599 13.4873 14.9067C13.6566 14.9535 13.8351 14.9557 14.0055 14.913L17.289 14.0925C17.6739 13.9962 18.0757 13.9888 18.4639 14.0706C18.8522 14.1525 19.2167 14.3215 19.53 14.565L22.989 17.256C24.2325 18.2235 24.3465 20.061 23.2335 21.1725L21.6825 22.7235C20.5725 23.8335 18.9135 24.321 17.367 23.7765C13.4088 22.3838 9.81491 20.1177 6.852 17.1465C3.88093 14.184 1.61491 10.5907 0.221997 6.63298C-0.321003 5.08798 0.166497 3.42748 1.2765 2.31748L2.8275 0.766476Z" fill="white"/>
</g>
<defs>
<clipPath id="clip0_154_513">
<rect width="24" height="24" fill="white"/>
</clipPath>
</defs>
</svg>
