<svg width="39" height="39" viewBox="0 0 39 39" fill="none" xmlns="http://www.w3.org/2000/svg">
<circle cx="19.5" cy="19.5" r="19.5" fill="white"/>
<path d="M15.125 9.0835H23.875C27.2083 9.0835 29.9167 11.7918 29.9167 15.1252V23.8752C29.9167 25.4775 29.2801 27.0142 28.1471 28.1473C27.0141 29.2803 25.4773 29.9168 23.875 29.9168H15.125C11.7917 29.9168 9.08333 27.2085 9.08333 23.8752V15.1252C9.08333 13.5228 9.71986 11.9861 10.8529 10.8531C11.9859 9.72003 13.5226 9.0835 15.125 9.0835ZM14.9167 11.1668C13.9221 11.1668 12.9683 11.5619 12.265 12.2652C11.5617 12.9684 11.1667 13.9223 11.1667 14.9168V24.0835C11.1667 26.1564 12.8437 27.8335 14.9167 27.8335H24.0833C25.0779 27.8335 26.0317 27.4384 26.735 26.7351C27.4382 26.0319 27.8333 25.0781 27.8333 24.0835V14.9168C27.8333 12.8439 26.1562 11.1668 24.0833 11.1668H14.9167ZM24.9687 12.7293C25.3141 12.7293 25.6453 12.8665 25.8895 13.1107C26.1336 13.3549 26.2708 13.6861 26.2708 14.0314C26.2708 14.3767 26.1336 14.7079 25.8895 14.9521C25.6453 15.1963 25.3141 15.3335 24.9687 15.3335C24.6234 15.3335 24.2922 15.1963 24.048 14.9521C23.8038 14.7079 23.6667 14.3767 23.6667 14.0314C23.6667 13.6861 23.8038 13.3549 24.048 13.1107C24.2922 12.8665 24.6234 12.7293 24.9687 12.7293ZM19.5 14.2918C20.8813 14.2918 22.2061 14.8406 23.1828 15.8173C24.1596 16.7941 24.7083 18.1188 24.7083 19.5002C24.7083 20.8815 24.1596 22.2063 23.1828 23.183C22.2061 24.1598 20.8813 24.7085 19.5 24.7085C18.1187 24.7085 16.7939 24.1598 15.8171 23.183C14.8404 22.2063 14.2917 20.8815 14.2917 19.5002C14.2917 18.1188 14.8404 16.7941 15.8171 15.8173C16.7939 14.8406 18.1187 14.2918 19.5 14.2918ZM19.5 16.3752C18.6712 16.3752 17.8763 16.7044 17.2903 17.2905C16.7042 17.8765 16.375 18.6714 16.375 19.5002C16.375 20.329 16.7042 21.1238 17.2903 21.7099C17.8763 22.2959 18.6712 22.6252 19.5 22.6252C20.3288 22.6252 21.1237 22.2959 21.7097 21.7099C22.2958 21.1238 22.625 20.329 22.625 19.5002C22.625 18.6714 22.2958 17.8765 21.7097 17.2905C21.1237 16.7044 20.3288 16.3752 19.5 16.3752Z" fill="#FFD600"/>
</svg>
