<svg width="39" height="39" viewBox="0 0 39 39" fill="none" xmlns="http://www.w3.org/2000/svg">
<circle cx="19.5" cy="19.5" r="19.5" fill="white"/>
<path d="M14.3617 11.5833C14.3614 12.0695 14.168 12.5357 13.8241 12.8794C13.4801 13.223 13.0137 13.4159 12.5274 13.4157C12.0412 13.4154 11.575 13.2221 11.2313 12.8781C10.8877 12.5341 10.6948 12.0677 10.695 11.5814C10.6953 11.0952 10.8886 10.629 11.2326 10.2853C11.5766 9.9417 12.043 9.74878 12.5293 9.74902C13.0155 9.74927 13.4817 9.94265 13.8254 10.2866C14.169 10.6306 14.3619 11.097 14.3617 11.5833ZM14.4167 14.7733H10.75V26.2499H14.4167V14.7733ZM20.21 14.7733H16.5617V26.2499H20.1733V20.2274C20.1733 16.8724 24.5458 16.5608 24.5458 20.2274V26.2499H28.1667V18.9808C28.1667 13.3249 21.695 13.5358 20.1733 16.3133L20.21 14.7733Z" fill="#FFD600"/>
</svg>
