<svg width="39" height="39" viewBox="0 0 39 39" fill="none" xmlns="http://www.w3.org/2000/svg">
<circle cx="19.5" cy="19.5" r="19.5" fill="white"/>
<path d="M29.5883 14.4998C28.8825 14.8207 28.1217 15.0315 27.3333 15.1323C28.14 14.6465 28.7633 13.8765 29.0567 12.9507C28.2958 13.409 27.4525 13.7298 26.5633 13.9132C25.8392 13.1248 24.8217 12.6665 23.6667 12.6665C21.5125 12.6665 19.7525 14.4265 19.7525 16.599C19.7525 16.9107 19.7892 17.2132 19.8533 17.4973C16.59 17.3323 13.6842 15.7648 11.75 13.3907C11.4108 13.9682 11.2183 14.6465 11.2183 15.3615C11.2183 16.7273 11.9058 17.9373 12.9692 18.6248C12.3183 18.6248 11.7133 18.4415 11.1817 18.1665V18.194C11.1817 20.1007 12.5383 21.6957 14.335 22.0532C13.7582 22.211 13.1526 22.233 12.5658 22.1173C12.8148 22.8988 13.3024 23.5825 13.9601 24.0725C14.6178 24.5625 15.4125 24.8341 16.2325 24.849C14.8425 25.9494 13.1195 26.5442 11.3467 26.5357C11.035 26.5357 10.7233 26.5173 10.4117 26.4807C12.1533 27.599 14.225 28.2498 16.4433 28.2498C23.6667 28.2498 27.6358 22.2548 27.6358 17.0573C27.6358 16.8832 27.6358 16.7182 27.6267 16.544C28.3967 15.994 29.0567 15.2973 29.5883 14.4998Z" fill="#FFD600"/>
</svg>
