<svg version="1.2" xmlns="http://www.w3.org/2000/svg" viewBox="0 0 1440 218" width="1440" height="218">
	<title>Group 1000003896</title>
	<style>
		.s0 { fill: #ffffff } 
	</style>
	<g id="Folder 1">
		<path class="s0" d="m0 75.8c22-7.3 49.6-5.2 68.3 5.5 3.4-5.8 9.1-11 16.5-15.1 24.5-13.4 62-12 83.7 3.1 7 4.8 11.8 10.8 13.8 17.2 2.1 6.5 1.3 13.1-2.3 19.3 4-0.2 8 0 11.9 0.6 9.5 1.3 17.9 5 23.4 10.2 11.1-16.2 39.7-25.5 68.2-21.3 30.1 4.4 49.3 22.2 45 40.6 9.7-1.6 19.8-1.7 29.6-0.3 8.7 1.2 16.9 3.7 24 7.3 7 3.6 12.6 8.2 16.4 13.4q3 0.7 5.9 1.7c5.3-8.9 21.2-15.1 38.3-14.9q2.3 0.1 4.6 0.3c15.2 1.4 29.5 7.8 38.6 17.2 6.9-2.4 14.6-3.6 22.5-3.5l1.1 0.1c22.3 0.7 39.5 11.6 38.5 24.3-0.6 6.5-6 12.6-14.9 16.7-1.8 1.1-4 1.9-6.4 2.4-3.4 1-7 1.7-10.7 2.2 0.7 6.5-7.5 13.6-20.2 17.2-5.4 1.6-11.3 2.4-17.2 2.3-9.5-0.1-17.2-2.7-20.8-7-3.7 2.1-7.9 3.8-12.5 5l67.2 43.9-487.7-25.9v-34.3c-7.6-2.1-14.4-5.2-19.9-9q-1.7-1.2-3.2-2.4c0 2.3-0.6 4.6-1.7 6.8z"/>
		<path class="s0" d="m495.5 153.5c15.5-11.9 41.6-17 65.1-12-0.5-6.1 1.4-12.2 5.7-17.7 13.9-18 48.5-26.1 77.4-18.1 9.3 2.5 17.3 6.7 23.1 11.9 5.8 5.2 9.2 11.4 9.8 17.8 3.4-1.2 7.2-2 11-2.5 9.5-1.1 19.3 0 27.5 3.3 0.1-17.2 20.2-32.6 48.5-36 29.8-3.6 58.1 7.5 65.6 25 7.7-3.9 16.8-6.5 26.5-7.7 8.7-1.1 17.6-0.9 26.2 0.6 8.5 1.4 16.4 4.1 23.1 7.8q3.1-0.1 6.2 0c-0.6-9.2 9.9-18.8 25.5-22.8q2.1-0.5 4.4-0.9c14.6-2.6 31.4-0.4 45.4 5.7 4.7-3.9 11-6.9 18.2-8.7l1-0.3c20.6-4.9 42.8 0.5 49.7 12.1 3.5 6 2.3 12.7-3.2 18.6-0.9 1.5-2.4 2.7-4.3 3.7-2.4 1.8-5.2 3.4-8.3 4.7 4.6 5.7 1.6 14-7.6 20.4-4 2.8-8.8 4.9-14.2 6.4-8.7 2.2-17.3 1.8-23-1.1-2.1 2.8-4.9 5.3-8.3 7.6l87.7 22.3-456.4 98.7-21.1-30.6c-8.1 0.1-16.1-1-23.6-3.1q-2.2-0.6-4.2-1.3c1.4 2.1 2.2 4.3 2.6 6.5z"/>
		<path id="Layer copy 3" class="s0" d="m387.5 211.5c15.5-11.9 41.6-17 65.1-12-0.5-6.1 1.4-12.2 5.7-17.7 13.9-18 48.5-26.1 77.4-18.1 9.3 2.5 17.3 6.7 23.1 11.9 5.8 5.2 9.2 11.4 9.8 17.8 3.4-1.2 7.2-2 11-2.5 9.5-1.1 19.3 0 27.5 3.3 0.1-17.2 20.2-32.6 48.5-36 29.8-3.6 58.1 7.5 65.6 25 7.7-3.9 16.8-6.5 26.5-7.7 8.7-1.1 17.6-0.9 26.2 0.6 8.5 1.4 16.4 4.1 23.1 7.8q3.1-0.1 6.2 0c-0.6-9.2 9.9-18.8 25.5-22.8q2.1-0.5 4.4-0.9c14.6-2.6 31.4-0.4 45.4 5.7 4.7-3.9 11-6.9 18.2-8.7l1-0.3c20.6-4.9 42.8 0.5 49.7 12.1 3.5 6 2.3 12.7-3.2 18.6-0.9 1.5-2.4 2.7-4.3 3.7-2.4 1.8-5.2 3.4-8.3 4.7 4.6 5.7 1.6 14-7.6 20.4-4 2.8-8.8 4.9-14.2 6.4-8.7 2.2-17.3 1.8-23-1.1-2.1 2.8-4.9 5.3-8.3 7.6l87.7 22.3-456.4 98.7-21.1-30.6c-8.1 0.1-16.1-1-23.6-3.1q-2.2-0.6-4.2-1.3c1.4 2.1 2.2 4.3 2.6 6.5z"/>
		<path id="Layer copy 4" class="s0" d="m-156.5 229.5c15.5-11.9 41.6-17 65.1-12-0.5-6.1 1.4-12.2 5.7-17.7 13.9-18 48.5-26.1 77.4-18.1 9.3 2.5 17.3 6.7 23.1 11.9 5.8 5.2 9.2 11.4 9.8 17.8 3.4-1.2 7.2-2 11-2.5 9.5-1.1 19.3 0 27.5 3.3 0.1-17.2 20.2-32.6 48.5-36 29.8-3.6 58.1 7.5 65.6 25 7.7-3.9 16.8-6.5 26.5-7.7 8.7-1.1 17.6-0.9 26.2 0.6 8.5 1.4 16.4 4.1 23.1 7.8q3.1-0.1 6.2 0c-0.6-9.2 9.9-18.8 25.5-22.8q2.1-0.5 4.4-0.9c14.6-2.6 31.4-0.4 45.4 5.7 4.7-3.9 11-6.9 18.2-8.7l1-0.3c20.6-4.9 42.8 0.5 49.7 12.1 3.5 6 2.3 12.7-3.2 18.6-0.9 1.5-2.4 2.7-4.3 3.7-2.4 1.8-5.2 3.4-8.3 4.7 4.6 5.7 1.6 14-7.6 20.4-4 2.8-8.8 4.9-14.2 6.4-8.7 2.2-17.3 1.8-23-1.1-2.1 2.8-4.9 5.3-8.3 7.6l87.7 22.3-456.4 98.7-21.1-30.6c-8.1 0.1-16.1-1-23.6-3.1q-2.2-0.6-4.2-1.3c1.4 2.1 2.2 4.3 2.6 6.5z"/>
		<path class="s0" d="m1450.2 44.5c-16.2-4.9-36-3.1-49.1 4.9-2.7-4.2-7-7.8-12.5-10.6-18.1-9.2-45.1-7.7-60.2 3.3-4.9 3.6-8.2 7.9-9.4 12.5-1.3 4.6-0.5 9.4 2.2 13.7-2.8-0.1-5.7 0.1-8.5 0.6-6.9 1.1-12.8 3.8-16.6 7.6-8.5-11.4-29.5-17.7-49.9-14.3-21.6 3.5-34.9 16.5-31.2 29.6-7-1.1-14.3-1-21.3 0.1-6.3 1-12.2 2.9-17.1 5.6-4.9 2.6-8.9 6-11.5 9.7q-2.1 0.6-4.1 1.3c-4.2-6.2-15.8-10.5-28.2-10.1q-1.6 0.1-3.3 0.3c-11 1.2-21 5.9-27.3 12.8-5-1.7-10.7-2.4-16.3-2.2h-0.9c-16 0.8-28.1 8.9-26.9 17.9 0.6 4.6 4.7 8.9 11.2 11.7 1.4 0.7 3 1.3 4.7 1.6 2.5 0.7 5.2 1.2 7.9 1.4-0.3 4.7 5.8 9.7 15.1 12.1 3.9 1 8.2 1.5 12.5 1.4 6.9-0.3 12.3-2.2 14.8-5.3 2.7 1.4 5.8 2.6 9.2 3.4l-47.1 32.2 351.2-25-1.1-24.4c5.4-1.6 10.2-3.9 14.1-6.7q1.1-0.9 2.1-1.8 0.2 2.5 1.5 4.9z"/>
		<path id="Layer copy" class="s0" d="m1154.2 120.5c-16.2-4.9-36-3.1-49.1 4.9-2.7-4.2-7-7.8-12.5-10.6-18.1-9.2-45.1-7.7-60.2 3.3-4.9 3.6-8.2 7.9-9.4 12.5-1.3 4.6-0.5 9.4 2.2 13.7-2.8-0.1-5.7 0.1-8.5 0.6-6.9 1.1-12.8 3.8-16.6 7.6-8.5-11.4-29.5-17.7-49.9-14.3-21.6 3.5-34.9 16.5-31.2 29.6-7-1.1-14.3-1-21.3 0.1-6.3 1-12.2 2.9-17.1 5.6-4.9 2.6-8.9 6-11.5 9.7q-2.1 0.6-4.1 1.3c-4.2-6.2-15.8-10.5-28.2-10.1q-1.6 0.1-3.3 0.3c-11 1.2-21 5.9-27.3 12.8-5-1.7-10.7-2.4-16.3-2.2h-0.9c-16 0.8-28.1 8.9-26.9 17.9 0.6 4.6 4.7 8.9 11.2 11.7 1.4 0.7 3 1.3 4.7 1.6 2.5 0.7 5.2 1.2 7.9 1.4-0.3 4.7 5.8 9.7 15.1 12.1 3.9 1 8.2 1.5 12.5 1.4 6.9-0.3 12.3-2.2 14.8-5.3 2.7 1.4 5.8 2.6 9.2 3.4l-47.1 32.2 351.2-25-1.1-24.4c5.4-1.6 10.2-3.9 14.1-6.7q1.1-0.9 2.1-1.8 0.2 2.5 1.5 4.9z"/>
		<path id="Layer copy 2" class="s0" d="m1464.2 110.5c-16.2-4.9-36-3.1-49.1 4.9-2.7-4.2-7-7.8-12.5-10.6-18.1-9.2-45.1-7.7-60.2 3.3-4.9 3.6-8.2 7.9-9.4 12.5-1.3 4.6-0.5 9.4 2.2 13.7-2.8-0.1-5.7 0.1-8.5 0.6-6.9 1.1-12.8 3.8-16.6 7.6-8.5-11.4-29.5-17.7-49.9-14.3-21.6 3.5-34.9 16.5-31.2 29.6-7-1.1-14.3-1-21.3 0.1-6.3 1-12.2 2.9-17.1 5.6-4.9 2.6-8.9 6-11.5 9.7q-2.1 0.6-4.1 1.3c-4.2-6.2-15.8-10.5-28.2-10.1q-1.6 0.1-3.3 0.3c-11 1.2-21 5.9-27.3 12.8-5-1.7-10.7-2.4-16.3-2.2h-0.9c-16 0.8-28.1 8.9-26.9 17.9 0.6 4.6 4.7 8.9 11.2 11.7 1.4 0.7 3 1.3 4.7 1.6 2.5 0.7 5.2 1.2 7.9 1.4-0.3 4.7 5.8 9.7 15.1 12.1 3.9 1 8.2 1.5 12.5 1.4 6.9-0.3 12.3-2.2 14.8-5.3 2.7 1.4 5.8 2.6 9.2 3.4l-47.1 32.2 351.2-25-1.1-24.4c5.4-1.6 10.2-3.9 14.1-6.7q1.1-0.9 2.1-1.8 0.2 2.5 1.5 4.9z"/>
	</g>
</svg>