<svg width="26" height="26" viewBox="0 0 26 26" fill="none" xmlns="http://www.w3.org/2000/svg">
<path d="M18.4166 19.5C17.2141 19.5 16.2499 20.4642 16.2499 21.6667C16.2499 22.2413 16.4782 22.7924 16.8845 23.1987C17.2908 23.6051 17.8419 23.8333 18.4166 23.8333C18.9912 23.8333 19.5423 23.6051 19.9486 23.1987C20.355 22.7924 20.5833 22.2413 20.5833 21.6667C20.5833 21.092 20.355 20.5409 19.9486 20.1346C19.5423 19.7283 18.9912 19.5 18.4166 19.5ZM1.08325 2.16667V4.33333H3.24992L7.14992 12.5558L5.67658 15.21C5.51408 15.5133 5.41658 15.8708 5.41658 16.25C5.41658 16.8246 5.64486 17.3757 6.05119 17.7821C6.45752 18.1884 7.00862 18.4167 7.58325 18.4167H20.5833V16.25H8.03825C7.96642 16.25 7.89753 16.2215 7.84674 16.1707C7.79595 16.1199 7.76742 16.051 7.76742 15.9792C7.76742 15.925 7.77825 15.8817 7.79992 15.8492L8.77492 14.0833H16.8458C17.6583 14.0833 18.3732 13.6283 18.7416 12.9675L22.6199 5.95833C22.6957 5.785 22.7499 5.60083 22.7499 5.41667C22.7499 5.12935 22.6358 4.8538 22.4326 4.65064C22.2295 4.44747 21.9539 4.33333 21.6666 4.33333H5.64408L4.62575 2.16667M7.58325 19.5C6.38075 19.5 5.41658 20.4642 5.41658 21.6667C5.41658 22.2413 5.64486 22.7924 6.05119 23.1987C6.45752 23.6051 7.00862 23.8333 7.58325 23.8333C8.15789 23.8333 8.70899 23.6051 9.11532 23.1987C9.52164 22.7924 9.74992 22.2413 9.74992 21.6667C9.74992 21.092 9.52164 20.5409 9.11532 20.1346C8.70899 19.7283 8.15789 19.5 7.58325 19.5Z" fill="white"/>
</svg>
