<svg width="428" height="66" viewBox="0 0 428 66" fill="none" xmlns="http://www.w3.org/2000/svg">
<path d="M-56 0H552C552 3.49593 548.693 6.44149 545.248 7.03807C542.862 7.45136 539.883 8.24176 536.378 9.69795C532.224 11.4234 525.631 20.708 527.506 49.2111C527.633 51.1452 527.55 53.1003 527.109 54.9877C524.211 67.3918 521.028 65.9522 520.122 65.946C517.324 65.927 512.311 65.7036 509.989 51.1567C508.131 39.5191 528.567 10.4253 510.622 11.3951C492.678 12.3649 506.189 43.3983 498.167 43.1559C490.144 42.9134 489.676 28.124 489.3 25.2147C485.289 -5.81877 480.745 10.8009 475.156 10.4253C469.054 10.0153 470.089 0.969795 458.478 3.39428C446.867 5.81877 443.067 11.6375 428.5 8.9706C413.933 6.30366 417.926 26.7442 408.022 26.9118C403.133 26.9945 400.779 17.5156 396.864 13.4942C394.954 11.5331 391.97 12.3374 389.387 13.2421C382.405 15.6871 374.667 16.3337 364.533 7.75836C355.667 2.90938 358.454 4.77163 348.911 4.84897C322.733 17.6988 304.367 20.8506 284.733 9.85898C284.733 9.85898 273.881 4.83412 266.789 4.84897C260.262 4.86264 245.603 11.63 238.5 11.6375C230.806 11.6457 227.944 13.3347 221.189 9.94039C216.814 8.14591 213.711 4.49197 210.254 3.99215C207.626 3.61231 205.652 6.00754 203.779 7.88901C197.455 14.2424 193.367 11.4204 192.689 10.9102C186.567 6.30366 186.926 5.2072 183.4 5.57632C174.04 6.55625 178.105 16.2441 178.544 22.3053C178.984 28.3665 174.744 32.7306 170.311 32.0032C165.878 31.2759 174.533 17.2139 171.156 9.94039C167.778 2.66693 155.86 4.12933 150.678 4.12163C145.24 4.11355 134.535 12.1407 129.567 12.1224C121.912 12.0944 104.921 4.90335 98.5333 4.84897C90.0945 4.77713 76.0887 11.0335 70.2444 10.9102C60.6097 10.707 57.9628 8.60874 56.9444 8.24325C49.0777 5.41996 44.7734 2.8889 38.5003 6.32195C34.1898 8.68092 30.7155 12.9772 30.3805 17.8795C30.0818 22.2514 30.1333 28.0631 30.1333 33.4579C29.1813 40.5868 25.4798 43.9898 24.6444 43.8832C23.1856 43.697 19.8598 44.6544 17.3429 41.597C15.4545 39.303 15.6086 36.0539 15.831 33.091C16.6395 22.3204 14.1404 18.8259 10.2889 19.1534C5.20079 19.5862 8.6 28.3665 0.788891 28.3665C-7.02222 28.3665 -7.64896 6.71155 -12.9333 7.27346C-26.5353 8.71981 -20.5333 40.004 -19.4778 47.035C-18.4222 54.066 -24.9667 54.3085 -27.9222 53.8236C-30.8778 53.3387 -33.8333 50.6718 -34.4667 45.3379C-35.1 40.004 -30.1321 22.1941 -33.2 12.1224C-35.4032 4.88961 -44.1365 11.0115 -46.0778 10.9102C-47.3923 10.8416 -48.7575 10.4816 -50.0394 10.0008C-54.0356 8.50187 -56 4.26801 -56 0Z" fill="#FF66C4"/>
</svg>
