<?xml version="1.0" standalone="no"?><svg xmlns="http://www.w3.org/2000/svg" viewBox="0 0 1440 320"><path fill="#fff" fill-opacity="1" d="M0,224L34.3,218.7C68.6,213,137,203,206,208C274.3,213,343,235,411,250.7C480,267,549,277,617,266.7C685.7,256,754,224,823,224C891.4,224,960,256,1029,266.7C1097.1,277,1166,267,1234,261.3C1302.9,256,1371,256,1406,256L1440,256L1440,320L1405.7,320C1371.4,320,1303,320,1234,320C1165.7,320,1097,320,1029,320C960,320,891,320,823,320C754.3,320,686,320,617,320C548.6,320,480,320,411,320C342.9,320,274,320,206,320C137.1,320,69,320,34,320L0,320Z"></path></svg>